<svg width="57" height="56" viewBox="0 0 57 56" fill="none" xmlns="http://www.w3.org/2000/svg">
<path d="M53.5508 23.7834C52.6782 18.3421 50.0781 13.3261 46.1347 9.47666C42.1913 5.62725 37.114 3.14881 31.6533 2.40772L31.246 5.40904C36.0625 6.06271 40.5408 8.24876 44.0189 11.644C47.4971 15.0393 49.7905 19.4636 50.5601 24.2629L53.5508 23.7834Z" fill="#FCC6CA"/>
<path d="M33.4137 52.9877C38.8096 51.8687 43.7023 49.0432 47.3685 44.9289C51.0347 40.8147 53.2798 35.6299 53.7719 30.1412L50.7552 29.8707C50.3211 34.7119 48.3409 39.285 45.1072 42.9139C41.8735 46.5428 37.558 49.035 32.7987 50.0219L33.4137 52.9877Z" fill="#C4E9B0"/>
<path d="M2.86577 32.0062C3.75819 37.4442 6.37665 42.4508 10.3341 46.2858C14.2915 50.1207 19.3778 52.5806 24.8412 53.3018L25.2375 50.299C20.4187 49.6629 15.9324 47.4932 12.4419 44.1107C8.95132 40.7281 6.64177 36.3122 5.85463 31.5157L2.86577 32.0062Z" fill="#F8B17C"/>
<path d="M21.9044 2.95843C16.5619 4.30982 11.7961 7.34432 8.3113 11.6134C4.82655 15.8824 2.80788 21.1594 2.55369 26.6643L5.57931 26.804C5.80351 21.9485 7.58403 17.2941 10.6577 13.5287C13.7313 9.76326 17.9349 7.08674 22.6472 5.89478L21.9044 2.95843Z" fill="#FBD77E"/>
</svg>
